<?xml version="1.0" standalone="no"?>
<!DOCTYPE svg PUBLIC "-//W3C//DTD SVG 20010904//EN"
 "http://www.w3.org/TR/2001/REC-SVG-20010904/DTD/svg10.dtd">
<svg version="1.0" xmlns="http://www.w3.org/2000/svg"
 width="572.000000pt" height="618.000000pt" viewBox="0 0 572.000000 618.000000"
 preserveAspectRatio="xMidYMid meet">

<g transform="translate(0.000000,618.000000) scale(0.100000,-0.100000)"
fill="#000000" stroke="none">
<path d="M2671 6050 c-52 -12 -113 -61 -141 -110 -35 -65 -34 -159 3 -223 64
-109 222 -138 325 -60 74 56 105 189 63 271 -48 93 -156 146 -250 122z"/>
<path d="M3257 5929 c-20 -33 -41 -222 -28 -247 8 -15 37 -25 118 -41 164 -34
386 -98 508 -148 198 -81 421 -213 609 -360 89 -70 318 -298 377 -376 247
-326 417 -668 495 -997 100 -424 82 -915 -48 -1320 -129 -400 -336 -745 -626
-1042 -297 -304 -620 -509 -1027 -650 -93 -33 -189 -70 -212 -84 -37 -21 -283
-270 -291 -294 -5 -13 82 -13 173 0 39 6 142 28 230 50 436 108 834 323 1199
649 417 372 747 908 870 1416 75 310 89 422 89 715 0 265 -16 398 -73 634 -64
266 -169 519 -316 766 -229 385 -587 747 -962 974 -264 159 -552 271 -867 336
-82 17 -162 33 -177 36 -20 5 -29 1 -41 -17z"/>
<path d="M1787 5855 c-64 -24 -98 -56 -125 -113 -48 -106 -9 -227 90 -276 106
-53 231 -26 293 62 27 40 30 51 30 122 0 71 -3 82 -30 122 -54 77 -173 116
-258 83z"/>
<path d="M1025 5428 c-88 -32 -138 -106 -138 -203 0 -127 86 -215 210 -215
160 1 258 167 189 317 -34 72 -87 106 -170 110 -33 1 -74 -2 -91 -9z"/>
<path d="M1574 4961 c-155 -71 -128 -311 38 -341 141 -26 250 122 189 255 -22
48 -44 69 -94 90 -48 20 -83 19 -133 -4z"/>
<path d="M495 4789 c-55 -16 -113 -74 -131 -134 -15 -46 -16 -62 -5 -108 27
-124 156 -198 265 -153 46 19 107 75 122 113 33 77 10 175 -52 232 -59 55
-126 72 -199 50z"/>
<path d="M2902 4785 c-18 -8 -59 -30 -90 -49 -63 -38 -253 -151 -407 -241 -55
-32 -154 -91 -220 -130 -66 -39 -163 -96 -215 -127 -52 -31 -138 -81 -190
-112 -99 -59 -134 -93 -156 -154 -16 -46 -20 -1425 -4 -1483 15 -54 74 -115
159 -165 114 -68 441 -263 566 -338 267 -161 431 -256 440 -256 5 0 43 34 83
76 100 104 99 110 -38 191 -58 34 -130 78 -160 96 -30 19 -167 101 -305 182
-137 82 -293 174 -345 205 -57 34 -104 70 -117 90 l-23 33 -2 556 c-4 714 -4
688 19 720 24 32 13 25 403 253 199 116 547 321 605 356 73 44 104 45 170 5
28 -16 93 -53 145 -83 52 -29 115 -65 140 -80 55 -33 200 -118 340 -197 296
-169 373 -218 396 -252 l24 -36 0 -621 0 -621 -23 -34 c-22 -32 -75 -67 -342
-224 -271 -159 -383 -229 -413 -258 -19 -18 -79 -88 -135 -157 -97 -120 -276
-337 -522 -635 -116 -141 -137 -177 -116 -198 8 -8 88 -14 254 -17 208 -4 242
-7 239 -20 -4 -17 -43 -85 -102 -175 -57 -89 -144 -233 -174 -290 -14 -27 -85
-144 -156 -260 -72 -115 -130 -220 -130 -232 0 -52 42 -25 191 120 271 265
823 802 1019 991 107 104 199 195 203 203 5 8 6 21 3 28 -4 12 -57 15 -308 17
-268 3 -303 5 -306 19 -3 17 326 396 463 534 79 80 97 92 430 293 108 65 151
103 176 157 18 38 19 80 19 768 0 706 -1 729 -20 765 -34 64 -53 79 -241 188
-101 58 -215 124 -254 147 -38 22 -95 55 -125 73 -30 17 -93 54 -140 81 -290
170 -495 286 -525 299 -44 18 -140 18 -183 -1z"/>
<path d="M1111 4380 c-98 -23 -155 -132 -122 -233 26 -77 126 -131 201 -108
136 41 173 195 72 303 -13 15 -39 30 -56 33 -17 4 -38 8 -46 10 -8 1 -30 -1
-49 -5z"/>
<path d="M186 4045 c-138 -49 -179 -222 -78 -335 75 -84 209 -87 287 -6 85 87
85 204 0 292 -58 61 -130 77 -209 49z"/>
<path d="M2911 4037 c-48 -18 -108 -72 -134 -120 -18 -35 -22 -57 -21 -127 l1
-85 -47 -40 c-26 -22 -92 -79 -146 -127 l-100 -86 -54 14 c-48 12 -62 12 -115
-1 -115 -30 -178 -96 -197 -207 -21 -121 36 -230 148 -283 61 -29 154 -37 191
-16 12 6 24 11 26 11 3 0 73 -72 155 -161 l150 -160 -10 -42 c-27 -120 51
-258 166 -292 91 -27 171 -14 242 40 44 34 70 74 90 144 14 45 14 63 5 107
l-12 53 109 113 c59 62 127 133 149 157 39 44 41 44 72 31 80 -33 198 -2 268
72 129 135 77 365 -96 423 -48 16 -122 17 -193 3 -10 -2 -75 47 -162 122
l-146 125 7 35 c25 121 -29 235 -134 286 -47 22 -164 29 -212 11z m-13 -473
c55 -27 130 -29 190 -5 l53 21 101 -87 c195 -169 182 -153 169 -198 -14 -53
-13 -121 3 -166 l13 -37 -60 -63 c-33 -35 -99 -106 -147 -157 l-88 -92 -38 16
c-45 19 -156 15 -190 -6 -19 -12 -27 -7 -91 61 -39 41 -104 111 -145 157 l-74
84 14 57 c12 49 12 67 1 117 -7 32 -13 62 -14 66 0 5 209 196 271 247 0 1 15
-6 32 -15z"/>
<path d="M789 3647 c-121 -81 -113 -260 15 -318 52 -23 90 -23 142 0 49 22 79
61 95 124 21 78 -18 164 -93 203 -42 22 -119 18 -159 -9z"/>
<path d="M104 3261 c-98 -45 -123 -191 -46 -273 33 -36 102 -62 146 -55 90 15
152 96 144 192 -10 124 -127 189 -244 136z"/>
<path d="M223 2596 c-104 -24 -133 -37 -133 -63 0 -24 86 -295 123 -389 147
-371 375 -706 675 -996 302 -291 647 -506 1032 -644 167 -60 486 -141 514
-131 20 8 149 226 143 242 -7 16 -37 25 -226 66 -232 49 -461 134 -671 247
-116 62 -339 211 -430 288 -109 90 -325 314 -411 424 -214 274 -366 578 -430
857 -12 54 -26 104 -32 111 -13 16 -33 14 -154 -12z"/>
</g>
</svg>
